<?xml version="1.0" standalone="no"?>
<!DOCTYPE svg PUBLIC "-//W3C//DTD SVG 20010904//EN"
 "http://www.w3.org/TR/2001/REC-SVG-20010904/DTD/svg10.dtd">
<svg version="1.0" xmlns="http://www.w3.org/2000/svg"
 width="668.000000pt" height="213.000000pt" viewBox="0 0 668.000000 213.000000"
 preserveAspectRatio="xMidYMid meet">

<g transform="translate(0.000000,213.000000) scale(0.100000,-0.100000)"
fill="#000000" stroke="none">
<path d="M661 1844 c0 -11 3 -14 6 -6 3 7 2 16 -1 19 -3 4 -6 -2 -5 -13z"/>
<path d="M1160 1810 c-6 -11 -8 -20 -6 -20 3 0 10 9 16 20 6 11 8 20 6 20 -3
0 -10 -9 -16 -20z"/>
<path d="M536 1757 c3 -10 9 -15 12 -12 3 3 0 11 -7 18 -10 9 -11 8 -5 -6z"/>
<path d="M713 1736 c-132 -30 -244 -106 -316 -214 -66 -97 -90 -175 -90 -292
1 -52 6 -108 12 -124 9 -23 9 -31 0 -37 -24 -14 64 -22 175 -15 98 5 247 31
299 51 16 7 17 -7 17 -214 0 -168 -3 -223 -12 -226 -7 -3 -72 -6 -144 -8 -71
-2 -135 -7 -141 -10 -6 -4 -19 0 -28 9 -15 15 -15 14 -9 -10 5 -23 3 -26 -19
-26 -19 0 -26 6 -29 22 -3 20 -8 22 -58 19 -30 -2 -66 -4 -80 -5 -18 -1 -26
-7 -28 -23 l-3 -23 280 0 281 0 0 271 c0 224 -2 270 -13 261 -30 -25 -184 -53
-318 -59 l-136 -6 -7 24 c-3 13 -9 56 -12 94 -25 279 203 525 486 525 162 0
316 -82 404 -215 38 -56 79 -159 69 -169 -4 -3 3 -6 15 -6 20 0 21 2 8 43 -24
75 -36 100 -82 164 -111 156 -334 241 -521 199z"/>
<path d="M3435 1710 c-86 -13 -126 -74 -94 -144 14 -31 60 -53 158 -78 89 -22
111 -39 111 -85 0 -64 -73 -104 -150 -83 -40 11 -80 43 -117 95 -28 38 -30 17
-7 -61 16 -56 22 -62 41 -43 9 9 22 8 53 -5 76 -30 164 -13 213 42 27 29 34
96 13 127 -21 32 -54 48 -144 70 -87 21 -122 45 -122 85 0 34 39 60 90 60 40
0 66 -13 112 -58 21 -20 40 -33 43 -31 3 3 -2 26 -11 52 -13 40 -19 46 -42 45
-15 -1 -45 3 -67 8 -22 6 -58 7 -80 4z"/>
<path d="M2445 1700 c-69 -6 -70 -6 -37 -19 l32 -13 0 -174 c0 -166 -1 -174
-19 -174 -11 0 -23 -4 -26 -10 -4 -6 23 -10 74 -10 45 0 81 2 81 5 0 3 -11 10
-25 15 -24 9 -25 13 -25 90 l0 80 44 0 43 0 64 -92 65 -93 133 -3 c89 -2 130
1 126 8 -3 5 -15 10 -25 10 -30 0 -32 16 -14 75 l18 55 81 0 81 0 21 -59 c23
-62 21 -71 -9 -71 -10 0 -18 -4 -18 -10 0 -6 33 -10 80 -10 44 0 80 2 80 5 0
3 -11 10 -24 15 -20 7 -37 42 -97 195 -73 185 -73 186 -102 183 -28 -3 -32
-11 -101 -187 -58 -146 -77 -186 -95 -193 -43 -16 -71 2 -132 84 -32 44 -59
83 -59 88 0 5 16 14 35 20 64 21 86 105 41 157 -22 26 -30 28 -122 33 -55 3
-130 3 -169 0z m223 -37 c47 -29 48 -86 3 -127 -15 -14 -41 -20 -96 -24 l-75
-5 0 81 c0 81 0 82 28 88 15 3 32 7 37 9 18 6 80 -7 103 -22z m401 -98 c17
-44 31 -83 31 -87 0 -5 -29 -8 -65 -8 -36 0 -65 4 -65 10 0 5 10 35 21 67 12
32 26 69 31 82 5 13 10 22 12 20 2 -2 18 -40 35 -84z"/>
<path d="M3697 1697 c-17 -14 -42 -85 -32 -95 3 -3 17 8 31 25 28 36 109 72
125 56 11 -11 14 -337 3 -354 -3 -5 -14 -9 -25 -9 -10 0 -19 -4 -19 -10 0 -6
35 -10 85 -10 84 0 112 12 55 24 l-30 6 0 174 c0 141 3 175 14 179 27 10 82
-13 116 -48 19 -19 37 -35 41 -35 10 0 -19 93 -31 100 -19 12 -318 9 -333 -3z"/>
<path d="M400 1665 c19 -19 36 -35 39 -35 3 0 -10 16 -29 35 -19 19 -36 35
-39 35 -3 0 10 -16 29 -35z"/>
<path d="M2000 1695 c0 -3 11 -10 25 -15 l25 -10 0 -170 0 -170 -27 -12 c-27
-12 -27 -13 20 -16 26 -2 67 -2 90 0 l42 4 -32 13 -33 13 0 74 0 74 71 0 c73
0 98 8 137 43 16 15 22 32 22 64 0 94 -36 113 -215 113 -69 0 -125 -2 -125 -5z
m248 -32 c47 -29 52 -104 9 -143 -16 -16 -35 -20 -84 -20 l-64 0 3 87 c3 83 4
87 28 94 32 8 79 1 108 -18z"/>
<path d="M4133 1687 l27 -11 0 -178 c0 -170 -1 -178 -19 -178 -11 0 -23 -4
-26 -10 -4 -6 23 -10 74 -10 45 0 81 4 81 9 0 5 -10 11 -22 13 -22 3 -23 8
-26 96 l-3 92 111 0 111 0 -3 -92 c-3 -88 -4 -93 -25 -96 -13 -2 -23 -8 -23
-13 0 -5 69 -9 162 -9 97 0 158 4 152 9 -5 5 -18 11 -29 13 -24 5 -24 36 -1
91 l15 37 78 0 78 0 22 -57 c24 -60 23 -73 -8 -73 -10 0 -19 -4 -19 -10 0 -6
33 -10 80 -10 83 0 96 4 57 19 -19 7 -38 46 -96 195 -71 180 -75 186 -102 186
-27 0 -30 -6 -101 -187 -66 -168 -77 -188 -101 -194 -15 -4 -39 -4 -54 0 l-28
7 -3 172 -2 172 32 14 c32 14 31 14 -49 15 -46 1 -83 -1 -83 -4 0 -3 11 -10
25 -15 23 -9 25 -14 25 -80 l0 -70 -110 0 -110 0 0 73 c0 70 1 74 28 84 23 9
13 11 -58 11 -71 0 -81 -2 -57 -11z m666 -117 c17 -43 31 -84 31 -90 0 -6 -27
-10 -65 -10 -36 0 -65 4 -65 9 0 12 61 171 65 171 2 0 17 -36 34 -80z"/>
<path d="M5068 1684 l32 -14 0 -170 c0 -143 -2 -171 -15 -175 -46 -15 -49 -19
-12 -23 20 -2 54 -2 75 0 l37 4 -32 13 -33 13 0 159 c0 87 3 159 8 159 4 0 39
-52 77 -115 144 -235 144 -235 170 -235 l25 0 0 185 0 185 33 14 c31 14 30 14
-48 15 -55 0 -75 -2 -65 -9 8 -5 23 -10 33 -10 15 0 17 -14 17 -145 0 -80 -2
-145 -4 -145 -2 0 -46 70 -97 155 l-94 154 -70 0 c-69 -1 -70 -1 -37 -15z"/>
<path d="M5650 1678 c-6 -13 -39 -95 -73 -183 -46 -117 -69 -163 -85 -171 -41
-21 -35 -24 41 -24 77 0 102 12 48 23 l-30 6 21 61 20 61 80 -3 80 -3 23 -57
23 -57 -29 -10 c-16 -5 -29 -12 -29 -15 0 -4 39 -6 86 -6 54 0 83 4 79 10 -3
6 -14 10 -24 10 -15 0 -34 40 -93 188 -69 174 -75 187 -101 190 -20 3 -29 -2
-37 -20z m58 -118 c17 -41 28 -78 25 -82 -8 -14 -123 -9 -123 5 0 24 55 166
62 159 3 -4 20 -41 36 -82z"/>
<path d="M5973 1687 l27 -11 0 -173 0 -173 -27 -12 -28 -12 38 -4 c20 -2 54
-2 75 0 l37 4 -32 13 -33 13 0 165 c0 90 3 162 8 160 4 -3 36 -84 72 -181 44
-119 69 -175 79 -174 7 2 44 79 82 172 38 94 72 172 74 175 3 2 5 -71 5 -162
0 -159 -1 -167 -19 -167 -11 0 -23 -4 -26 -10 -4 -6 23 -10 74 -10 45 0 81 2
81 5 0 3 -11 10 -25 15 l-25 10 0 173 0 173 28 11 c23 10 18 11 -42 10 l-68
-2 -61 -147 c-35 -85 -64 -143 -68 -135 -4 6 -31 74 -60 150 l-52 137 -71 -1
c-62 -1 -67 -3 -43 -12z"/>
<path d="M1224 1638 l-19 -23 23 19 c21 18 27 26 19 26 -2 0 -12 -10 -23 -22z"/>
<path d="M1335 1520 c-3 -6 1 -7 9 -4 18 7 21 14 7 14 -6 0 -13 -4 -16 -10z"/>
<path d="M1483 1313 c-18 -9 -33 -23 -33 -30 0 -7 -4 -13 -10 -13 -5 0 -10 -7
-10 -15 0 -8 -9 -19 -20 -25 -14 -7 -20 -21 -20 -43 0 -44 43 -77 101 -77 38
0 41 -2 35 -22 -3 -13 -6 -26 -6 -30 0 -4 -15 -9 -32 -11 -18 -2 5 -4 52 -4
47 0 68 2 48 4 -36 4 -38 6 -38 37 0 34 0 34 45 31 37 -3 48 1 60 18 21 30 19
60 -5 77 -11 8 -23 31 -26 50 -5 32 -11 38 -54 53 -56 20 -47 20 -87 0z"/>
<path d="M813 1265 c0 -27 2 -38 4 -22 2 15 2 37 0 50 -2 12 -4 0 -4 -28z"/>
<path d="M870 1286 c0 -2 7 -6 15 -10 8 -3 15 -1 15 4 0 6 -7 10 -15 10 -8 0
-15 -2 -15 -4z"/>
<path d="M1280 1282 c0 -5 7 -9 15 -9 8 0 15 4 15 9 0 4 -7 8 -15 8 -8 0 -15
-4 -15 -8z"/>
<path d="M997 1273 c51 -2 135 -2 185 0 51 1 10 3 -92 3 -102 0 -143 -2 -93
-3z"/>
<path d="M812 1180 c0 -14 2 -19 5 -12 2 6 2 18 0 25 -3 6 -5 1 -5 -13z"/>
<path d="M2022 1098 c4 -10 464 -14 2246 -16 1989 -2 2242 0 2242 13 0 13
-255 15 -2246 15 -1792 0 -2245 -3 -2242 -12z"/>
<path d="M238 1093 c7 -3 16 -2 19 1 4 3 -2 6 -13 5 -11 0 -14 -3 -6 -6z"/>
<path d="M1091 1057 c-29 -35 -30 -38 -7 -17 24 22 52 60 44 60 -2 0 -18 -19
-37 -43z"/>
<path d="M1211 1054 c0 -11 3 -14 6 -6 3 7 2 16 -1 19 -3 4 -6 -2 -5 -13z"/>
<path d="M1879 1036 c-2 -3 -43 -7 -89 -11 -123 -8 -170 -14 -183 -22 -7 -4
-22 -6 -34 -4 -13 1 -23 -3 -23 -9 0 -7 -8 -10 -20 -7 -11 3 -27 -1 -35 -10
-8 -8 -21 -13 -28 -10 -17 6 -49 -12 -42 -24 4 -5 -5 -9 -20 -9 -37 0 -45 -31
-45 -180 0 -94 -3 -129 -12 -133 -7 -2 40 -4 105 -4 98 0 119 2 127 16 8 14 9
14 10 -1 0 -16 14 -18 160 -18 l160 0 0 83 c0 51 -5 88 -12 95 -9 9 -9 12 0
12 17 0 15 30 -3 36 -8 4 -12 11 -9 18 3 6 -1 3 -9 -6 -19 -24 -30 -23 -22 2
4 12 2 27 -4 34 -13 15 12 71 40 93 19 14 22 63 4 63 -6 0 -14 -2 -16 -4z m8
-32 c-3 -3 -12 -4 -19 -1 -8 3 -5 6 6 6 11 1 17 -2 13 -5z m-97 -24 c0 -5 -5
-10 -11 -10 -5 0 -7 5 -4 10 3 6 8 10 11 10 2 0 4 -4 4 -10z m-122 -90 c-7
-11 -17 -20 -22 -20 -5 0 -1 9 9 20 10 11 20 20 22 20 2 0 -2 -9 -9 -20z m-87
-62 c16 -15 29 -33 29 -40 0 -10 -2 -10 -9 1 -6 10 -13 6 -27 -18 -17 -28 -49
-49 -60 -38 -2 2 -6 37 -8 78 -2 43 0 64 5 49 4 -14 7 -46 8 -72 1 -50 10 -59
31 -33 7 8 9 15 4 15 -5 0 -10 28 -11 63 -1 34 1 53 4 42 3 -11 18 -32 34 -47z
m-150 4 c-8 -15 -7 -21 3 -25 10 -4 18 5 25 25 6 17 13 29 16 26 3 -3 -2 -24
-10 -48 -20 -57 -19 -77 6 -90 31 -17 6 -42 -38 -38 -35 3 -35 3 -38 58 -2 42
2 61 16 79 11 13 19 31 20 40 0 9 3 11 5 4 3 -7 1 -21 -5 -31z m171 -84 c-7
-7 -12 -8 -12 -2 0 14 12 26 19 19 2 -3 -1 -11 -7 -17z m-2 -52 c0 -3 -4 -8
-10 -11 -5 -3 -10 -1 -10 4 0 6 5 11 10 11 6 0 10 -2 10 -4z"/>
<path d="M1560 793 c0 -21 3 -24 9 -14 5 8 7 20 4 28 -8 21 -13 15 -13 -14z"/>
<path d="M1402 784 c1 -9 9 -19 16 -22 9 -3 13 2 10 14 -1 9 -9 19 -16 22 -9
3 -13 -2 -10 -14z"/>
<path d="M1418 720 c-5 -30 6 -41 15 -17 4 9 8 8 17 -3 10 -13 11 -13 6 0 -3
8 -9 23 -12 33 -10 26 -21 20 -26 -13z"/>
<path d="M1093 979 c-18 -12 -33 -23 -33 -26 0 -3 12 3 28 13 15 10 45 21 67
25 l40 6 -35 2 c-20 0 -49 -8 -67 -20z"/>
<path d="M452 983 c65 -2 171 -2 236 0 64 1 11 3 -118 3 -129 0 -182 -2 -118
-3z"/>
<path d="M4393 966 c-27 -23 -28 -28 -28 -114 0 -83 2 -93 25 -117 22 -24 31
-26 73 -22 27 2 56 12 65 21 22 22 30 163 12 207 -22 53 -99 66 -147 25z m101
-63 c5 -25 5 -65 0 -95 -9 -50 -11 -53 -39 -53 l-30 0 -3 83 c-3 91 6 115 42
110 16 -2 23 -14 30 -45z"/>
<path d="M6310 983 c-25 -9 -40 -35 -40 -70 0 -29 7 -37 54 -69 59 -39 73 -59
55 -81 -20 -23 -54 -12 -57 20 -3 23 -8 27 -34 27 -29 0 -30 -2 -24 -32 8 -43
39 -68 86 -68 52 0 90 31 90 75 0 34 -2 36 -94 109 -20 16 -27 28 -23 40 10
26 51 17 55 -11 2 -16 10 -23 26 -23 12 0 25 3 29 6 10 10 -14 64 -33 74 -20
11 -65 12 -90 3z"/>
<path d="M2060 850 l0 -130 68 0 c37 0 72 4 78 8 24 16 34 54 34 131 0 108
-12 121 -110 121 l-70 0 0 -130z m118 72 c6 -9 12 -42 12 -74 0 -63 -21 -98
-60 -98 -19 0 -20 7 -20 93 0 52 3 96 6 99 9 9 48 -3 62 -20z"/>
<path d="M2550 850 l0 -130 75 0 c68 0 75 2 75 20 0 17 -7 20 -50 20 l-50 0 0
35 c0 35 0 35 45 35 41 0 45 2 45 25 0 23 -4 25 -45 25 -43 0 -45 1 -45 30 0
29 1 30 50 30 43 0 50 3 50 20 0 18 -7 20 -75 20 l-75 0 0 -130z"/>
<path d="M3014 850 l31 -130 37 0 c26 0 38 5 42 18 6 20 56 232 56 238 0 2
-13 4 -28 4 -29 0 -29 -1 -47 -102 -20 -113 -21 -113 -50 25 -16 74 -18 77
-44 77 l-28 0 31 -130z"/>
<path d="M3475 853 l0 -128 78 -3 c72 -3 77 -1 77 18 0 17 -6 20 -50 20 l-50
0 0 39 0 38 43 -1 c36 -1 42 2 45 22 3 20 -1 22 -42 22 -44 0 -46 1 -46 30 0
29 1 30 50 30 43 0 50 3 50 20 0 18 -7 20 -78 20 l-77 0 0 -127z"/>
<path d="M3930 850 l0 -130 75 0 c68 0 75 2 75 20 0 17 -7 20 -50 20 l-50 0 0
110 0 110 -25 0 -25 0 0 -130z"/>
<path d="M4860 850 l0 -130 25 0 c24 0 25 3 25 55 l0 55 38 0 c57 0 82 22 82
75 0 63 -17 75 -101 75 l-69 0 0 -130z m104 87 c11 -8 17 -23 14 -38 -2 -19
-10 -25 -35 -27 -32 -3 -33 -2 -33 37 0 33 4 41 18 41 10 0 26 -6 36 -13z"/>
<path d="M5330 850 l0 -130 75 0 c68 0 75 2 75 20 0 17 -7 20 -51 20 l-50 0 3
37 c3 36 4 37 45 38 49 2 56 6 47 29 -4 11 -19 16 -50 16 -42 0 -44 1 -44 30
0 29 1 30 50 30 43 0 50 3 50 20 0 18 -7 20 -75 20 l-75 0 0 -130z"/>
<path d="M5780 850 l0 -130 30 0 c30 0 30 0 30 56 l0 55 33 -3 c31 -3 32 -5
37 -52 4 -44 8 -51 32 -57 15 -4 29 -5 31 -3 9 9 -13 109 -27 123 -13 13 -13
16 1 27 24 17 23 82 -2 100 -12 9 -45 14 -92 14 l-73 0 0 -130z m114 87 c11
-8 17 -23 14 -38 -2 -19 -10 -25 -35 -27 -32 -3 -33 -2 -33 37 0 33 4 41 18
41 10 0 26 -6 36 -13z"/>
<path d="M365 919 c-11 -6 -30 -27 -43 -46 -21 -33 -22 -37 -7 -59 11 -16 25
-24 45 -24 41 0 43 -37 3 -43 -16 -2 -1 -4 32 -4 33 0 50 2 38 4 -15 3 -23 12
-23 24 0 14 7 19 29 19 24 0 60 25 54 37 -1 2 -11 15 -23 30 -11 14 -20 31
-20 37 0 6 -12 17 -27 24 -31 14 -31 14 -58 1z"/>
<path d="M1016 890 c-16 -55 -29 -80 -42 -80 -20 0 -25 -16 -4 -17 13 -1 24
13 40 48 11 28 19 56 17 62 -2 7 -7 1 -11 -13z"/>
<path d="M1195 890 c10 -11 20 -20 23 -20 3 0 -3 9 -13 20 -10 11 -20 20 -23
20 -3 0 3 -9 13 -20z"/>
<path d="M1013 749 c1 -11 5 -19 9 -19 4 0 8 -7 8 -15 0 -8 5 -15 10 -15 6 0
9 -6 8 -12 -4 -16 134 -24 160 -9 14 9 11 10 -15 11 -18 0 -33 5 -33 11 0 5 4
8 8 5 5 -3 9 2 9 10 0 10 -4 11 -11 4 -14 -14 -29 -13 -20 2 5 7 3 8 -6 3 -7
-4 -16 -2 -21 6 -7 11 -9 11 -9 1 0 -10 -5 -10 -20 -2 -15 8 -20 8 -21 -2 -1
-7 -4 -2 -8 12 -8 31 -50 38 -48 9z"/>
<path d="M2022 628 c4 -10 465 -14 2251 -15 1235 -2 2253 0 2261 3 9 3 16 10
16 15 0 5 -943 9 -2266 9 -1808 0 -2265 -3 -2262 -12z"/>
<path d="M858 613 c7 -3 16 -2 19 1 4 3 -2 6 -13 5 -11 0 -14 -3 -6 -6z"/>
<path d="M918 613 c7 -3 16 -2 19 1 4 3 -2 6 -13 5 -11 0 -14 -3 -6 -6z"/>
<path d="M963 613 c9 -2 23 -2 30 0 6 3 -1 5 -18 5 -16 0 -22 -2 -12 -5z"/>
<path d="M1068 613 c6 -2 18 -2 25 0 6 3 1 5 -13 5 -14 0 -19 -2 -12 -5z"/>
<path d="M1133 613 c15 -2 37 -2 50 0 12 2 0 4 -28 4 -27 0 -38 -2 -22 -4z"/>
<path d="M1278 613 c7 -3 16 -2 19 1 4 3 -2 6 -13 5 -11 0 -14 -3 -6 -6z"/>
<path d="M3078 466 l-5 -24 28 21 c16 11 32 17 36 14 3 -4 -5 -48 -19 -97
l-25 -90 21 0 c18 0 25 13 46 93 26 97 43 114 67 67 9 -17 13 -20 13 -8 0 9 3
23 6 32 5 14 -5 16 -79 16 -82 0 -85 -1 -89 -24z"/>
<path d="M3277 482 c9 -6 6 -29 -12 -97 -14 -50 -25 -91 -25 -92 0 -2 7 -3 15
-3 9 0 20 12 26 28 5 15 12 34 15 42 4 8 7 26 9 40 1 14 6 40 10 58 7 30 6 32
-21 32 -18 0 -24 -3 -17 -8z"/>
<path d="M3708 481 c11 -7 9 -25 -11 -97 -13 -49 -28 -97 -32 -106 -5 -13 -3
-18 8 -18 24 0 37 24 62 115 14 48 29 93 36 101 9 12 4 14 -32 14 -28 0 -39
-3 -31 -9z"/>
<path d="M4748 478 c8 -10 30 -142 32 -192 1 -6 18 23 40 64 41 81 45 80 55
-15 l7 -60 50 100 c28 55 56 103 62 107 6 4 -2 8 -18 8 -22 0 -26 -3 -18 -12
7 -9 2 -29 -18 -68 l-28 -55 -7 38 c-4 20 -5 51 -3 67 4 28 3 30 -29 30 -29 0
-32 -2 -22 -18 9 -14 6 -28 -14 -68 l-25 -49 -7 38 c-4 20 -5 51 -3 67 4 28 3
30 -30 30 -26 0 -32 -3 -24 -12z"/>
<path d="M5020 475 c0 -8 7 -15 15 -15 8 0 15 7 15 15 0 8 -7 15 -15 15 -8 0
-15 -7 -15 -15z"/>
<path d="M5187 472 c2 -10 -5 -51 -16 -92 -25 -89 -25 -90 -7 -90 13 0 38 54
42 90 1 8 6 33 13 55 15 54 15 55 -13 55 -18 0 -23 -4 -19 -18z"/>
<path d="M5427 483 c-4 -3 -7 -12 -7 -19 0 -10 7 -9 29 4 16 9 32 14 35 12 5
-6 -36 -158 -48 -178 -5 -8 3 -12 25 -12 18 0 30 3 27 6 -5 5 12 81 38 167 7
21 33 23 40 2 9 -22 24 -18 24 5 0 18 -7 20 -78 20 -43 0 -82 -3 -85 -7z"/>
<path d="M5618 481 c11 -6 9 -23 -7 -89 -25 -95 -25 -102 -8 -102 8 0 20 18
27 40 13 38 60 95 60 72 0 -6 -5 -32 -12 -57 -15 -55 -2 -76 28 -48 11 10 14
14 7 9 -17 -11 -16 -1 2 52 9 24 13 48 10 53 -10 16 -41 10 -60 -11 -22 -25
-28 -21 -17 11 5 13 12 36 16 52 6 25 4 27 -26 27 -22 0 -28 -3 -20 -9z"/>
<path d="M6018 481 c11 -7 10 -22 -8 -87 -12 -43 -24 -84 -27 -91 -3 -9 3 -13
20 -13 21 0 25 6 31 38 8 52 19 65 45 57 25 -8 28 -41 5 -73 -19 -27 -1 -31
34 -6 26 18 29 50 6 75 -14 16 -14 18 5 24 11 3 23 16 27 27 11 35 -27 58 -95
58 -34 0 -51 -4 -43 -9z m97 -21 c9 -28 -12 -60 -39 -60 -23 0 -23 2 -14 40
11 44 42 56 53 20z"/>
<path d="M5097 435 c-15 -14 -24 -25 -18 -25 6 0 4 -20 -5 -51 -9 -28 -13 -58
-10 -66 7 -16 32 -12 29 5 -4 19 26 105 39 113 9 6 9 9 1 9 -6 0 -9 9 -6 20 7
25 4 25 -30 -5z"/>
<path d="M6467 434 c-15 -13 -24 -24 -19 -24 6 0 4 -24 -5 -56 -11 -46 -12
-59 -2 -65 15 -9 32 -2 24 11 -6 10 21 101 33 109 4 3 6 16 3 28 l-6 22 -28
-25z"/>
<path d="M3343 405 c4 -8 -1 -35 -10 -60 -10 -32 -12 -50 -5 -57 15 -15 37 3
38 32 1 14 5 42 9 63 7 34 6 37 -15 37 -15 0 -20 -4 -17 -15z"/>
<path d="M3457 409 c-11 -6 -25 -27 -33 -46 -13 -31 -13 -38 1 -59 18 -28 36
-30 62 -7 10 10 13 14 6 9 -7 -4 -20 -6 -28 -2 -20 7 -14 55 9 92 18 26 12 30
-17 13z"/>
<path d="M3504 411 c4 -7 0 -24 -10 -39 l-18 -27 25 16 c26 18 32 50 10 57 -9
3 -11 0 -7 -7z"/>
<path d="M3809 407 c-42 -32 -52 -99 -18 -117 57 -31 142 73 97 118 -19 19
-23 15 -25 -23 -2 -45 -24 -89 -46 -93 -24 -5 -23 42 2 91 20 39 17 45 -10 24z"/>
<path d="M3941 382 c-7 -84 -6 -97 9 -97 9 0 14 8 12 20 -1 12 4 40 13 64 19
54 19 51 -7 51 -19 0 -24 -6 -27 -38z"/>
<path d="M4020 378 c-18 -58 -19 -77 -5 -88 9 -7 18 -5 32 7 10 10 13 14 6 9
-17 -11 -17 8 1 67 13 43 13 47 -3 47 -12 0 -22 -14 -31 -42z"/>
<path d="M4114 412 c3 -5 -1 -33 -9 -63 -8 -30 -15 -55 -15 -56 0 -2 7 -3 15
-3 16 0 30 28 44 91 8 37 8 39 -16 39 -13 0 -22 -4 -19 -8z"/>
<path d="M4172 407 c-8 -10 -5 -13 14 -15 15 -1 24 3 24 13 0 18 -24 20 -38 2z"/>
<path d="M4234 393 c0 -16 -4 -45 -8 -65 -7 -31 -5 -38 7 -38 9 0 19 18 27 48
7 26 14 55 17 65 3 12 -2 17 -19 17 -18 0 -23 -6 -24 -27z"/>
<path d="M4300 405 c-11 -13 -10 -14 5 -9 15 6 17 4 11 -17 -24 -83 -15 -115
21 -81 10 9 12 13 4 7 -12 -8 -13 -6 -7 15 4 14 10 42 13 63 5 32 3 37 -14 37
-12 0 -26 -7 -33 -15z"/>
<path d="M4416 389 c-35 -41 -35 -85 -1 -101 23 -10 29 -9 48 12 12 13 14 18
5 11 -10 -7 -25 -11 -33 -7 -16 6 -21 36 -5 36 5 0 7 7 4 15 -4 8 1 26 10 40
23 35 3 31 -28 -6z"/>
<path d="M4475 410 c4 -6 -1 -22 -9 -35 -19 -29 -7 -33 17 -7 21 23 22 52 1
52 -8 0 -12 -5 -9 -10z"/>
<path d="M4539 402 c5 -9 14 -41 19 -70 11 -63 -3 -92 -43 -85 -27 6 -35 -11
-10 -21 20 -7 66 34 93 85 13 24 16 35 8 25 -12 -14 -16 -16 -16 -5 0 8 -5 31
-11 52 -7 27 -15 37 -30 37 -16 0 -18 -4 -10 -18z"/>
<path d="M4611 408 c1 -18 17 -55 18 -43 1 6 4 20 7 33 5 16 2 22 -10 22 -9 0
-16 -6 -15 -12z"/>
<path d="M4995 410 c4 -6 1 -33 -6 -61 -11 -42 -11 -52 1 -59 16 -10 33 -3 25
10 -5 9 7 67 22 106 4 10 -2 14 -22 14 -15 0 -24 -4 -20 -10z"/>
<path d="M5240 410 c-13 -8 -13 -10 2 -10 16 0 16 -3 1 -45 -16 -48 -12 -80
10 -72 6 2 11 9 10 15 -2 6 4 30 12 53 8 23 15 48 15 55 0 16 -28 18 -50 4z"/>
<path d="M5786 389 c-34 -40 -35 -85 -2 -100 26 -12 67 2 65 24 0 9 -2 9 -6 0
-7 -19 -43 -16 -50 4 -4 9 -1 19 5 21 7 2 10 8 7 13 -3 4 1 22 10 39 20 39 4
39 -29 -1z"/>
<path d="M5850 401 c0 -10 -7 -24 -15 -31 -9 -7 -13 -15 -10 -18 3 -3 14 3 25
13 21 19 27 55 10 55 -5 0 -10 -8 -10 -19z"/>
<path d="M6206 389 c-32 -38 -34 -84 -5 -99 11 -7 28 -8 37 -5 15 6 14 8 -5
16 -23 8 -32 39 -12 39 5 0 7 5 4 10 -4 6 0 24 9 40 19 39 5 38 -28 -1z"/>
<path d="M6270 401 c0 -10 -7 -24 -15 -31 -9 -7 -13 -15 -10 -18 3 -3 14 3 25
13 21 19 27 55 10 55 -5 0 -10 -8 -10 -19z"/>
<path d="M6337 413 c-13 -12 -7 -45 13 -70 25 -32 26 -53 3 -54 -12 0 -13 -2
-5 -6 18 -7 42 16 42 39 0 11 -9 33 -21 49 -11 16 -17 33 -14 39 7 11 -8 14
-18 3z"/>
<path d="M6380 416 c0 -2 7 -9 15 -16 12 -10 15 -10 15 4 0 9 -7 16 -15 16 -8
0 -15 -2 -15 -4z"/>
<path d="M6310 310 c0 -11 4 -20 9 -20 5 0 7 9 4 20 -3 11 -7 20 -9 20 -2 0
-4 -9 -4 -20z"/>
<path d="M3616 292 c-2 -4 0 -14 5 -22 8 -13 10 -13 18 0 10 15 6 30 -9 30 -5
0 -11 -4 -14 -8z"/>
</g>
</svg>
